Coordinates
version=1
nRows=14
nColumns=40
inDegrees=yes

Units are S.I. units (second, meters, Newtons, ...)
If the header above contains a line with 'inDegrees', this indicates whether rotational values are in degrees (yes) or radians (no).

endheader
time	pelvis_tilt	pelvis_list	pelvis_rotation	pelvis_tx	pelvis_ty	pelvis_tz	hip_flexion_r	hip_adduction_r	hip_rotation_r	knee_angle_r	knee_angle_r_beta	ankle_angle_r	subtalar_angle_r	mtp_angle_r	hip_flexion_l	hip_adduction_l	hip_rotation_l	knee_angle_l	knee_angle_l_beta	ankle_angle_l	subtalar_angle_l	mtp_angle_l	lumbar_extension	lumbar_bending	lumbar_rotation	arm_flex_r	arm_add_r	arm_rot_r	elbow_flex_r	pro_sup_r	wrist_flex_r	wrist_dev_r	arm_flex_l	arm_add_l	arm_rot_l	elbow_flex_l	pro_sup_l	wrist_flex_l	wrist_dev_l
      2.00000000	      5.58442627	     -6.79489636	     -0.25847006	     -0.29411461	      1.09062261	     -1.01167628	     34.93790987	     -0.03885608	     -6.87179291	     37.43270845	      0.65332401	     -5.35900515	      0.00000000	      0.00000000	      0.57381730	     -3.01613881	     -6.79281864	     15.72341979	      0.27442545	      1.38066576	      0.00000000	      0.00000000	     -7.36409948	      6.35911538	     -0.81049209	     89.45821979	    -12.49947143	     48.65194447	     28.50976693	     86.40622857	      0.00000000	      0.00000000	     89.45134483	    -17.13006461	     50.19590927	     27.34185607	     85.74873075	      0.00000000	      0.00000000
      2.00500000	      5.72771293	     -6.84498109	     -0.26264722	     -0.29416881	      1.09085783	     -1.01216925	     35.26423934	      0.02822373	     -6.93927322	     36.76977816	      0.64175369	     -5.12155608	      0.00000000	      0.00000000	      0.40989558	     -3.03436766	     -6.82547903	     15.71308319	      0.27424504	      1.46281729	      0.00000000	      0.00000000	     -7.52343013	      6.37778567	     -0.86327404	     89.45290428	    -12.41611677	     48.69814140	     28.46068325	     86.38434693	      0.00000000	      0.00000000	     89.45978586	    -17.16378171	     50.20342789	     27.29986488	     85.76976996	      0.00000000	      0.00000000
      2.01000000	      5.79400326	     -6.80844411	     -0.27519599	     -0.29435042	      1.09090931	     -1.01273022	     35.70313365	     -0.01939793	     -7.08223862	     36.16503195	      0.63119888	     -5.01022330	      0.00000000	      0.00000000	      0.30022416	     -2.94761146	     -6.92261749	     15.64139420	      0.27299383	      1.44821425	      0.00000000	      0.00000000	     -7.60330580	      6.30497873	     -0.89772897	     89.43882545	    -12.39145217	     48.70650963	     28.45683127	     86.37814288	      0.00000000	      0.00000000	     89.47077136	    -17.18275115	     50.19929825	     27.31069622	     85.76901689	      0.00000000	      0.00000000
      2.01500000	      5.91345687	     -6.85173650	     -0.22833761	     -0.29450162	      1.09114779	     -1.01334327	     36.01782690	      0.00340424	     -7.19197075	     35.45365417	      0.61878300	     -4.82292455	      0.00000000	      0.00000000	      0.14607106	     -2.95894165	     -6.94470071	     15.55231611	      0.27143912	      1.43589930	      0.00000000	      0.00000000	     -7.73876214	      6.32065415	     -0.98978275	     89.44405547	    -12.34543788	     48.74831098	     28.42393916	     86.38003320	      0.00000000	      0.00000000	     89.47705215	    -17.20426866	     50.21940197	     27.30025729	     85.77077417	      0.00000000	      0.00000000
      2.02000000	      6.13650533	     -6.98597890	     -0.15842616	     -0.29459401	      1.09153353	     -1.01386447	     36.21198156	      0.12316697	     -7.32257722	     34.76381895	      0.60674310	     -4.65330208	      0.00000000	      0.00000000	     -0.16153473	     -3.08013866	     -7.00124799	     15.40940078	      0.26894478	      1.39008802	      0.00000000	      0.00000000	     -7.97995120	      6.44468763	     -1.09080152	     89.46892399	    -12.26598144	     48.85018889	     28.33217069	     86.37837953	      0.00000000	      0.00000000	     89.49864115	    -17.27121945	     50.32468882	     27.25080199	     85.77270402	      0.00000000	      0.00000000
      2.02500000	      6.17933517	     -6.94982030	     -0.18204665	     -0.29470344	      1.09153674	     -1.01437462	     36.67445205	      0.07698617	     -7.42803688	     34.23142007	      0.59745099	     -4.51789228	      0.00000000	      0.00000000	     -0.23497812	     -3.00002350	     -7.01987329	     15.36164694	      0.26811132	      1.37578939	      0.00000000	      0.00000000	     -8.02896944	      6.36587480	     -1.12534381	     89.46130501	    -12.23694041	     48.83464686	     28.35085186	     86.37094138	      0.00000000	      0.00000000	     89.50288272	    -17.27767178	     50.32269479	     27.23986227	     85.76411620	      0.00000000	      0.00000000
      2.03000000	      6.23551190	     -6.93044098	     -0.14506406	     -0.29493935	      1.09153809	     -1.01493396	     37.11369496	      0.01504010	     -7.54323095	     33.66849785	      0.58762614	     -4.33672150	      0.00000000	      0.00000000	     -0.30552498	     -2.94465158	     -7.04515430	     15.29160481	      0.26688885	      1.41702005	      0.00000000	      0.00000000	     -8.09695171	      6.31023229	     -1.22145619	     89.45290035	    -12.18261046	     48.82403961	     28.36111809	     86.35980962	      0.00000000	      0.00000000	     89.51452772	    -17.29585728	     50.33452649	     27.21865551	     85.75574279	      0.00000000	      0.00000000
      2.03500000	      6.30671652	     -6.95806151	     -0.08685719	     -0.29508268	      1.09158634	     -1.01549648	     37.50983131	     -0.00638072	     -7.67468306	     33.10165577	      0.57773288	     -4.15364908	      0.00000000	      0.00000000	     -0.39675079	     -2.93887935	     -7.01815465	     15.23493369	      0.26589975	      1.47246404	      0.00000000	      0.00000000	     -8.17224313	      6.31786088	     -1.32263355	     89.44918795	    -12.12394067	     48.81118090	     28.35341634	     86.34616657	      0.00000000	      0.00000000	     89.52242932	    -17.31297213	     50.36938405	     27.18834477	     85.74618605	      0.00000000	      0.00000000
      2.04000000	      6.38978636	     -7.05848305	     -0.00544060	     -0.29524664	      1.09166557	     -1.01598698	     37.86092346	      0.02795271	     -7.88866392	     32.49299276	      0.56710971	     -3.99900038	      0.00000000	      0.00000000	     -0.48671242	     -3.03842700	     -6.98147297	     15.19940928	      0.26527974	      1.53497636	      0.00000000	      0.00000000	     -8.25143598	      6.38216998	     -1.45531082	     89.45634510	    -12.07831217	     48.80687475	     28.31796516	     86.33411695	      0.00000000	      0.00000000	     89.52708537	    -17.32180814	     50.41685171	     27.13824526	     85.73183765	      0.00000000	      0.00000000
      2.04500000	      6.45125844	     -7.11719171	      0.03333598	     -0.29537947	      1.09164483	     -1.01646863	     38.28096620	      0.03897642	     -8.05673872	     31.98568117	      0.55825545	     -3.83514726	      0.00000000	      0.00000000	     -0.57346531	     -3.07559651	     -6.95229807	     15.13613484	      0.26417539	      1.60938181	      0.00000000	      0.00000000	     -8.32238350	      6.42873991	     -1.52559642	     89.45776069	    -12.02696216	     48.80053249	     28.31584933	     86.32424862	      0.00000000	      0.00000000	     89.53781770	    -17.33996112	     50.43954547	     27.10803177	     85.71627776	      0.00000000	      0.00000000
      2.05000000	      6.55690424	     -7.14466584	      0.05851765	     -0.29553710	      1.09164397	     -1.01685040	     38.77351287	      0.02550095	     -8.12458860	     31.75949692	      0.55430779	     -3.76775613	      0.00000000	      0.00000000	     -0.68516701	     -3.10198821	     -6.96620386	     15.13440617	      0.26414522	      1.61856568	      0.00000000	      0.00000000	     -8.43748806	      6.40255241	     -1.57469209	     89.47192716	    -12.02262836	     48.76840033	     28.33351079	     86.31752521	      0.00000000	      0.00000000	     89.55613402	    -17.32960367	     50.42125131	     27.11850285	     85.70839666	      0.00000000	      0.00000000
      2.05500000	      6.50908280	     -7.19649246	      0.11635990	     -0.29573698	      1.09145381	     -1.01727403	     39.21916072	      0.00122141	     -8.42433302	     31.08205261	      0.54248416	     -3.54719898	      0.00000000	      0.00000000	     -0.62397662	     -3.14806712	     -6.99656565	     15.09707575	      0.26349368	      1.71069886	      0.00000000	      0.00000000	     -8.36803268	      6.43472691	     -1.69460411	     89.43756723	    -11.96528290	     48.78161145	     28.31694481	     86.31186495	      0.00000000	      0.00000000	     89.54661096	    -17.37852370	     50.44197698	     27.07039808	     85.69194479	      0.00000000	      0.00000000
      2.06000000	      6.61781632	     -7.22819786	      0.16266991	     -0.29593600	      1.09147536	     -1.01769014	     39.68536676	     -0.01466412	     -8.47946548	     30.86914919	      0.53876829	     -3.48884370	      0.00000000	      0.00000000	     -0.72355932	     -3.17916884	     -7.00796253	     15.10944754	      0.26370961	      1.73812921	      0.00000000	      0.00000000	     -8.49085309	      6.42534529	     -1.75314918	     89.44211612	    -11.95186582	     48.75456872	     28.33329588	     86.30552750	      0.00000000	      0.00000000	     89.55774483	    -17.35582563	     50.42477589	     27.09191662	     85.68400193	      0.00000000	      0.00000000
      2.06500000	      6.57697696	     -7.29519114	      0.24870332	     -0.29607551	      1.09135251	     -1.01815039	     40.09923752	     -0.02831128	     -8.73503951	     30.19495717	      0.52700142	     -3.25708083	      0.00000000	      0.00000000	     -0.64666867	     -3.25299693	     -7.02133271	     15.13005313	      0.26406924	      1.93276262	      0.00000000	      0.00000000	     -8.42567872	      6.47710835	     -1.88816098	     89.42834179	    -11.92277290	     48.77965518	     28.31727444	     86.30788103	      0.00000000	      0.00000000	     89.55211826	    -17.40783864	     50.46785906	     27.05253084	     85.66748054	      0.00000000	      0.00000000
